<svg width="618" height="1024" viewBox="0 0 618 1024" fill="none" xmlns="http://www.w3.org/2000/svg">
<g clip-path="url(#clip0_29_956)">
<rect width="618" height="1024" fill="white"/>
<rect width="618" height="1024" fill="#A435F0"/>
<path fill-rule="evenodd" clip-rule="evenodd" d="M-144.656 -791L-95.6 -764.439V-711.317L-144.656 -684.756L-193.711 -711.317V-764.439L-144.656 -791ZM-152.244 -672.007L-201.3 -698.568L-250.356 -672.007V-618.885L-201.3 -592.324L-152.244 -618.885V-672.007ZM-257.944 -606.135L-208.889 -579.574V-526.452L-257.944 -499.891L-307 -526.452V-579.574L-257.944 -606.135ZM17.6888 -764.439L-31.3667 -791L-80.4222 -764.439V-711.317L-31.3667 -684.756L17.6888 -711.317V-764.439ZM-38.9556 -672.007L-88.0111 -698.568L-137.067 -672.007V-618.885L-88.0111 -592.324L-38.9556 -618.885V-672.007ZM-144.656 -606.135L-95.6 -579.574V-526.452L-144.656 -499.891L-193.711 -526.452V-579.574L-144.656 -606.135ZM-152.244 -487.142L-201.3 -513.703L-250.356 -487.142V-434.02L-201.3 -407.459L-152.244 -434.02V-487.142ZM-257.944 -421.271L-208.889 -394.71V-341.587L-257.944 -315.026L-307 -341.587V-394.71L-257.944 -421.271ZM130.978 -764.439L81.9222 -791L32.8667 -764.439V-711.317L81.9222 -684.756L130.978 -711.317V-764.439ZM74.3333 -672.007L25.2778 -698.568L-23.7777 -672.007V-618.885L25.2778 -592.324L74.3333 -618.885V-672.007ZM-31.3667 -606.135L17.6888 -579.574V-526.452L-31.3667 -499.891L-80.4222 -526.452V-579.574L-31.3667 -606.135ZM-38.9556 -487.142L-88.0111 -513.703L-137.067 -487.142V-434.02L-88.0111 -407.459L-38.9556 -434.02V-487.142ZM-144.656 -421.271L-95.6 -394.71V-341.587L-144.656 -315.026L-193.711 -341.587V-394.71L-144.656 -421.271ZM-152.244 -302.277L-201.3 -328.838L-250.356 -302.277V-249.155L-201.3 -222.594L-152.244 -249.155V-302.277ZM-257.944 -236.406L-208.889 -209.845V-156.723L-257.944 -130.162L-307 -156.723V-209.845L-257.944 -236.406ZM244.267 -764.439L195.211 -791L146.156 -764.439V-711.317L195.211 -684.756L244.267 -711.317V-764.439ZM187.622 -672.007L138.567 -698.568L89.5111 -672.007V-618.885L138.567 -592.324L187.622 -618.885V-672.007ZM81.9222 -606.135L130.978 -579.574V-526.452L81.9222 -499.891L32.8667 -526.452V-579.574L81.9222 -606.135ZM74.3333 -487.142L25.2778 -513.703L-23.7777 -487.142V-434.02L25.2778 -407.459L74.3333 -434.02V-487.142ZM-31.3667 -421.271L17.6888 -394.71V-341.587L-31.3667 -315.026L-80.4222 -341.587V-394.71L-31.3667 -421.271ZM-38.9556 -302.277L-88.0111 -328.838L-137.067 -302.277V-249.155L-88.0111 -222.594L-38.9556 -249.155V-302.277ZM-144.656 -236.406L-95.6 -209.845V-156.723L-144.656 -130.162L-193.711 -156.723V-209.845L-144.656 -236.406ZM-152.244 -117.412L-201.3 -143.974L-250.356 -117.412V-64.2905L-201.3 -37.7294L-152.244 -64.2905V-117.412ZM-257.944 -51.5411L-208.889 -24.9801V28.1419L-257.944 54.7029L-307 28.1419V-24.9801L-257.944 -51.5411ZM357.556 -764.439L308.5 -791L259.444 -764.439V-711.317L308.5 -684.756L357.556 -711.317V-764.439ZM300.911 -672.007L251.856 -698.568L202.8 -672.007V-618.885L251.856 -592.324L300.911 -618.885V-672.007ZM195.211 -606.135L244.267 -579.574V-526.452L195.211 -499.891L146.156 -526.452V-579.574L195.211 -606.135ZM187.622 -487.142L138.567 -513.703L89.5111 -487.142V-434.02L138.567 -407.459L187.622 -434.02V-487.142ZM81.9222 -421.271L130.978 -394.71V-341.587L81.9222 -315.026L32.8667 -341.587V-394.71L81.9222 -421.271ZM74.3333 -302.277L25.2778 -328.838L-23.7777 -302.277V-249.155L25.2778 -222.594L74.3333 -249.155V-302.277ZM-31.3667 -236.406L17.6888 -209.845V-156.723L-31.3667 -130.162L-80.4222 -156.723V-209.845L-31.3667 -236.406ZM-38.9556 -117.412L-88.0111 -143.974L-137.067 -117.412V-64.2905L-88.0111 -37.7294L-38.9556 -64.2905V-117.412ZM-144.656 -51.5411L-95.6 -24.9801V28.1419L-144.656 54.7029L-193.711 28.1419V-24.9801L-144.656 -51.5411ZM-152.244 67.4522L-201.3 40.8912L-250.356 67.4522V120.574L-201.3 147.135L-152.244 120.574V67.4522ZM-257.944 133.324L-208.889 159.885V213.007L-257.944 239.568L-307 213.007V159.885L-257.944 133.324ZM470.844 -764.439L421.789 -791L372.733 -764.439V-711.317L421.789 -684.756L470.844 -711.317V-764.439ZM414.2 -672.007L365.144 -698.568L316.089 -672.007V-618.885L365.144 -592.324L414.2 -618.885V-672.007ZM308.5 -606.135L357.556 -579.574V-526.452L308.5 -499.891L259.444 -526.452V-579.574L308.5 -606.135ZM300.911 -487.142L251.856 -513.703L202.8 -487.142V-434.02L251.856 -407.459L300.911 -434.02V-487.142ZM195.211 -421.271L244.267 -394.71V-341.587L195.211 -315.026L146.156 -341.587V-394.71L195.211 -421.271ZM187.622 -302.277L138.567 -328.838L89.5111 -302.277V-249.155L138.567 -222.594L187.622 -249.155V-302.277ZM81.9222 -236.406L130.978 -209.845V-156.723L81.9222 -130.162L32.8667 -156.723V-209.845L81.9222 -236.406ZM74.3333 -117.412L25.2778 -143.974L-23.7777 -117.412V-64.2905L25.2778 -37.7294L74.3333 -64.2905V-117.412ZM-31.3667 -51.5411L17.6888 -24.9801V28.1419L-31.3667 54.7029L-80.4222 28.1419V-24.9801L-31.3667 -51.5411ZM-38.9556 67.4522L-88.0111 40.8912L-137.067 67.4522V120.574L-88.0111 147.135L-38.9556 120.574V67.4522ZM-144.656 133.324L-95.6 159.885V213.007L-144.656 239.568L-193.711 213.007V159.885L-144.656 133.324ZM-152.244 252.317L-201.3 225.756L-250.356 252.317V305.439L-201.3 332L-152.244 305.439V252.317ZM535.078 -791L584.133 -764.439V-711.317L535.078 -684.756L486.022 -711.317V-764.439L535.078 -791ZM478.433 -698.568L527.489 -672.007V-618.885L478.433 -592.324L429.378 -618.885V-672.007L478.433 -698.568ZM470.844 -579.574L421.789 -606.135L372.733 -579.574V-526.452L421.789 -499.891L470.844 -526.452V-579.574ZM365.144 -513.703L414.2 -487.142V-434.02L365.144 -407.459L316.089 -434.02V-487.142L365.144 -513.703ZM357.556 -394.71L308.5 -421.271L259.444 -394.71V-341.587L308.5 -315.026L357.556 -341.587V-394.71ZM251.856 -328.838L300.911 -302.277V-249.155L251.856 -222.594L202.8 -249.155V-302.277L251.856 -328.838ZM244.267 -209.845L195.211 -236.406L146.156 -209.845V-156.723L195.211 -130.162L244.267 -156.723V-209.845ZM138.567 -143.974L187.622 -117.412V-64.2905L138.567 -37.7294L89.5111 -64.2905V-117.412L138.567 -143.974ZM130.978 -24.9801L81.9222 -51.5411L32.8667 -24.9801V28.1419L81.9222 54.7029L130.978 28.1419V-24.9801ZM25.2778 40.8912L74.3333 67.4522V120.574L25.2778 147.135L-23.7777 120.574V67.4522L25.2778 40.8912ZM17.6888 159.885L-31.3667 133.324L-80.4222 159.885V213.007L-31.3667 239.568L17.6888 213.007V159.885ZM-88.0111 225.756L-38.9556 252.317V305.439L-88.0111 332L-137.067 305.439V252.317L-88.0111 225.756ZM697.422 -764.439L648.367 -791L599.311 -764.439V-711.317L648.367 -684.756L697.422 -711.317V-764.439ZM640.778 -672.007L591.722 -698.568L542.667 -672.007V-618.885L591.722 -592.324L640.778 -618.885V-672.007ZM535.078 -606.135L584.133 -579.574V-526.452L535.078 -499.891L486.022 -526.452V-579.574L535.078 -606.135ZM527.489 -487.142L478.433 -513.703L429.378 -487.142V-434.02L478.433 -407.459L527.489 -434.02V-487.142ZM421.789 -421.271L470.844 -394.71V-341.587L421.789 -315.026L372.733 -341.587V-394.71L421.789 -421.271ZM414.2 -302.277L365.144 -328.838L316.089 -302.277V-249.155L365.144 -222.594L414.2 -249.155V-302.277ZM308.5 -236.406L357.556 -209.845V-156.723L308.5 -130.162L259.444 -156.723V-209.845L308.5 -236.406ZM300.911 -117.412L251.856 -143.974L202.8 -117.412V-64.2905L251.856 -37.7294L300.911 -64.2905V-117.412ZM195.211 -51.5411L244.267 -24.9801V28.1419L195.211 54.7029L146.156 28.1419V-24.9801L195.211 -51.5411ZM187.622 67.4522L138.567 40.8912L89.5111 67.4522V120.574L138.567 147.135L187.622 120.574V67.4522ZM81.9222 133.324L130.978 159.885V213.007L81.9222 239.568L32.8667 213.007V159.885L81.9222 133.324ZM74.3333 252.317L25.2778 225.756L-23.7777 252.317V305.439L25.2778 332L74.3333 305.439V252.317ZM761.656 -791L810.711 -764.439V-711.317L761.656 -684.756L712.6 -711.317V-764.439L761.656 -791ZM705.011 -698.568L754.067 -672.007V-618.885L705.011 -592.324L655.956 -618.885V-672.007L705.011 -698.568ZM697.422 -579.574L648.367 -606.135L599.311 -579.574V-526.452L648.367 -499.891L697.422 -526.452V-579.574ZM591.722 -513.703L640.778 -487.142V-434.02L591.722 -407.459L542.667 -434.02V-487.142L591.722 -513.703ZM584.133 -394.71L535.078 -421.271L486.022 -394.71V-341.587L535.078 -315.026L584.133 -341.587V-394.71ZM478.433 -328.838L527.489 -302.277V-249.155L478.433 -222.594L429.378 -249.155V-302.277L478.433 -328.838ZM470.844 -209.845L421.789 -236.406L372.733 -209.845V-156.723L421.789 -130.162L470.844 -156.723V-209.845ZM365.144 -143.974L414.2 -117.412V-64.2905L365.144 -37.7294L316.089 -64.2905V-117.412L365.144 -143.974ZM357.556 -24.9801L308.5 -51.5411L259.444 -24.9801V28.1419L308.5 54.7029L357.556 28.1419V-24.9801ZM251.856 40.8912L300.911 67.4522V120.574L251.856 147.135L202.8 120.574V67.4522L251.856 40.8912ZM244.267 159.885L195.211 133.324L146.156 159.885V213.007L195.211 239.568L244.267 213.007V159.885ZM138.567 225.756L187.622 252.317V305.439L138.567 332L89.5111 305.439V252.317L138.567 225.756ZM924 -764.439L874.944 -791L825.889 -764.439V-711.317L874.944 -684.756L924 -711.317V-764.439ZM867.355 -672.007L818.3 -698.568L769.244 -672.007V-618.885L818.3 -592.324L867.355 -618.885V-672.007ZM761.656 -606.135L810.711 -579.574V-526.452L761.656 -499.891L712.6 -526.452V-579.574L761.656 -606.135ZM754.067 -487.142L705.011 -513.703L655.956 -487.142V-434.02L705.011 -407.459L754.067 -434.02V-487.142ZM648.367 -421.271L697.422 -394.71V-341.587L648.367 -315.026L599.311 -341.587V-394.71L648.367 -421.271ZM640.778 -302.277L591.722 -328.838L542.667 -302.277V-249.155L591.722 -222.594L640.778 -249.155V-302.277ZM535.078 -236.406L584.133 -209.845V-156.723L535.078 -130.162L486.022 -156.723V-209.845L535.078 -236.406ZM527.489 -117.412L478.433 -143.974L429.378 -117.412V-64.2905L478.433 -37.7294L527.489 -64.2905V-117.412ZM421.789 -51.5411L470.844 -24.9801V28.1419L421.789 54.7029L372.733 28.1419V-24.9801L421.789 -51.5411ZM414.2 67.4522L365.144 40.8912L316.089 67.4522V120.574L365.144 147.135L414.2 120.574V67.4522ZM308.5 133.324L357.556 159.885V213.007L308.5 239.568L259.444 213.007V159.885L308.5 133.324ZM300.911 252.317L251.856 225.756L202.8 252.317V305.439L251.856 332L300.911 305.439V252.317ZM874.944 -606.135L924 -579.574V-526.452L874.944 -499.891L825.889 -526.452V-579.574L874.944 -606.135ZM867.355 -487.142L818.3 -513.703L769.244 -487.142V-434.02L818.3 -407.459L867.355 -434.02V-487.142ZM761.656 -421.271L810.711 -394.71V-341.587L761.656 -315.026L712.6 -341.587V-394.71L761.656 -421.271ZM754.067 -302.277L705.011 -328.838L655.956 -302.277V-249.155L705.011 -222.594L754.067 -249.155V-302.277ZM648.367 -236.406L697.422 -209.845V-156.723L648.367 -130.162L599.311 -156.723V-209.845L648.367 -236.406ZM640.778 -117.412L591.722 -143.974L542.667 -117.412V-64.2905L591.722 -37.7294L640.778 -64.2905V-117.412ZM535.078 -51.5411L584.133 -24.9801V28.1419L535.078 54.7029L486.022 28.1419V-24.9801L535.078 -51.5411ZM527.489 67.4522L478.433 40.8912L429.378 67.4522V120.574L478.433 147.135L527.489 120.574V67.4522ZM421.789 133.324L470.844 159.885V213.007L421.789 239.568L372.733 213.007V159.885L421.789 133.324ZM414.2 252.317L365.144 225.756L316.089 252.317V305.439L365.144 332L414.2 305.439V252.317ZM874.944 -421.271L924 -394.71V-341.587L874.944 -315.026L825.889 -341.587V-394.71L874.944 -421.271ZM867.355 -302.277L818.3 -328.838L769.244 -302.277V-249.155L818.3 -222.594L867.355 -249.155V-302.277ZM761.656 -236.406L810.711 -209.845V-156.723L761.656 -130.162L712.6 -156.723V-209.845L761.656 -236.406ZM754.067 -117.412L705.011 -143.974L655.956 -117.412V-64.2905L705.011 -37.7294L754.067 -64.2905V-117.412ZM648.367 -51.5411L697.422 -24.9801V28.1419L648.367 54.7029L599.311 28.1419V-24.9801L648.367 -51.5411ZM640.778 67.4522L591.722 40.8912L542.667 67.4522V120.574L591.722 147.135L640.778 120.574V67.4522ZM535.078 133.324L584.133 159.885V213.007L535.078 239.568L486.022 213.007V159.885L535.078 133.324ZM527.489 252.317L478.433 225.756L429.378 252.317V305.439L478.433 332L527.489 305.439V252.317ZM874.944 -236.406L924 -209.845V-156.723L874.944 -130.162L825.889 -156.723V-209.845L874.944 -236.406ZM867.355 -117.412L818.3 -143.974L769.244 -117.412V-64.2905L818.3 -37.7294L867.355 -64.2905V-117.412ZM761.656 -51.5411L810.711 -24.9801V28.1419L761.656 54.7029L712.6 28.1419V-24.9801L761.656 -51.5411ZM754.067 67.4522L705.011 40.8912L655.956 67.4522V120.574L705.011 147.135L754.067 120.574V67.4522ZM648.367 133.324L697.422 159.885V213.007L648.367 239.568L599.311 213.007V159.885L648.367 133.324ZM640.778 252.317L591.722 225.756L542.667 252.317V305.439L591.722 332L640.778 305.439V252.317ZM874.944 -51.5411L924 -24.9801V28.1419L874.944 54.7029L825.889 28.1419V-24.9801L874.944 -51.5411ZM867.355 67.4522L818.3 40.8912L769.244 67.4522V120.574L818.3 147.135L867.355 120.574V67.4522ZM761.656 133.324L810.711 159.885V213.007L761.656 239.568L712.6 213.007V159.885L761.656 133.324ZM754.067 252.317L705.011 225.756L655.956 252.317V305.439L705.011 332L754.067 305.439V252.317ZM874.944 133.324L924 159.885V213.007L874.944 239.568L825.889 213.007V159.885L874.944 133.324ZM867.355 252.317L818.3 225.756L769.244 252.317V305.439L818.3 332L867.355 305.439V252.317Z" fill="url(#paint0_radial_29_956)"/>
<path fill-rule="evenodd" clip-rule="evenodd" d="M-144.656 693L-95.6 719.561V772.683L-144.656 799.244L-193.711 772.683V719.561L-144.656 693ZM-152.244 811.993L-201.3 785.432L-250.356 811.993V865.115L-201.3 891.676L-152.244 865.115V811.993ZM-257.944 877.865L-208.889 904.426V957.548L-257.944 984.109L-307 957.548V904.426L-257.944 877.865ZM17.6888 719.561L-31.3667 693L-80.4222 719.561V772.683L-31.3667 799.244L17.6888 772.683V719.561ZM-38.9556 811.993L-88.0111 785.432L-137.067 811.993V865.115L-88.0111 891.676L-38.9556 865.115V811.993ZM-144.656 877.865L-95.6 904.426V957.548L-144.656 984.109L-193.711 957.548V904.426L-144.656 877.865ZM-152.244 996.858L-201.3 970.297L-250.356 996.858V1049.98L-201.3 1076.54L-152.244 1049.98V996.858ZM-257.944 1062.73L-208.889 1089.29V1142.41L-257.944 1168.97L-307 1142.41V1089.29L-257.944 1062.73ZM130.978 719.561L81.9222 693L32.8667 719.561V772.683L81.9222 799.244L130.978 772.683V719.561ZM74.3333 811.993L25.2778 785.432L-23.7777 811.993V865.115L25.2778 891.676L74.3333 865.115V811.993ZM-31.3667 877.865L17.6888 904.426V957.548L-31.3667 984.109L-80.4222 957.548V904.426L-31.3667 877.865ZM-38.9556 996.858L-88.0111 970.297L-137.067 996.858V1049.98L-88.0111 1076.54L-38.9556 1049.98V996.858ZM-144.656 1062.73L-95.6 1089.29V1142.41L-144.656 1168.97L-193.711 1142.41V1089.29L-144.656 1062.73ZM-152.244 1181.72L-201.3 1155.16L-250.356 1181.72V1234.84L-201.3 1261.41L-152.244 1234.84V1181.72ZM-257.944 1247.59L-208.889 1274.16V1327.28L-257.944 1353.84L-307 1327.28V1274.16L-257.944 1247.59ZM244.267 719.561L195.211 693L146.156 719.561V772.683L195.211 799.244L244.267 772.683V719.561ZM187.622 811.993L138.567 785.432L89.5111 811.993V865.115L138.567 891.676L187.622 865.115V811.993ZM81.9222 877.865L130.978 904.426V957.548L81.9222 984.109L32.8667 957.548V904.426L81.9222 877.865ZM74.3333 996.858L25.2778 970.297L-23.7777 996.858V1049.98L25.2778 1076.54L74.3333 1049.98V996.858ZM-31.3667 1062.73L17.6888 1089.29V1142.41L-31.3667 1168.97L-80.4222 1142.41V1089.29L-31.3667 1062.73ZM-38.9556 1181.72L-88.0111 1155.16L-137.067 1181.72V1234.84L-88.0111 1261.41L-38.9556 1234.84V1181.72ZM-144.656 1247.59L-95.6 1274.16V1327.28L-144.656 1353.84L-193.711 1327.28V1274.16L-144.656 1247.59ZM-152.244 1366.59L-201.3 1340.03L-250.356 1366.59V1419.71L-201.3 1446.27L-152.244 1419.71V1366.59ZM-257.944 1432.46L-208.889 1459.02V1512.14L-257.944 1538.7L-307 1512.14V1459.02L-257.944 1432.46ZM357.556 719.561L308.5 693L259.444 719.561V772.683L308.5 799.244L357.556 772.683V719.561ZM300.911 811.993L251.856 785.432L202.8 811.993V865.115L251.856 891.676L300.911 865.115V811.993ZM195.211 877.865L244.267 904.426V957.548L195.211 984.109L146.156 957.548V904.426L195.211 877.865ZM187.622 996.858L138.567 970.297L89.5111 996.858V1049.98L138.567 1076.54L187.622 1049.98V996.858ZM81.9222 1062.73L130.978 1089.29V1142.41L81.9222 1168.97L32.8667 1142.41V1089.29L81.9222 1062.73ZM74.3333 1181.72L25.2778 1155.16L-23.7777 1181.72V1234.84L25.2778 1261.41L74.3333 1234.84V1181.72ZM-31.3667 1247.59L17.6888 1274.16V1327.28L-31.3667 1353.84L-80.4222 1327.28V1274.16L-31.3667 1247.59ZM-38.9556 1366.59L-88.0111 1340.03L-137.067 1366.59V1419.71L-88.0111 1446.27L-38.9556 1419.71V1366.59ZM-144.656 1432.46L-95.6 1459.02V1512.14L-144.656 1538.7L-193.711 1512.14V1459.02L-144.656 1432.46ZM-152.244 1551.45L-201.3 1524.89L-250.356 1551.45V1604.57L-201.3 1631.14L-152.244 1604.57V1551.45ZM-257.944 1617.32L-208.889 1643.88V1697.01L-257.944 1723.57L-307 1697.01V1643.88L-257.944 1617.32ZM470.844 719.561L421.789 693L372.733 719.561V772.683L421.789 799.244L470.844 772.683V719.561ZM414.2 811.993L365.144 785.432L316.089 811.993V865.115L365.144 891.676L414.2 865.115V811.993ZM308.5 877.865L357.556 904.426V957.548L308.5 984.109L259.444 957.548V904.426L308.5 877.865ZM300.911 996.858L251.856 970.297L202.8 996.858V1049.98L251.856 1076.54L300.911 1049.98V996.858ZM195.211 1062.73L244.267 1089.29V1142.41L195.211 1168.97L146.156 1142.41V1089.29L195.211 1062.73ZM187.622 1181.72L138.567 1155.16L89.5111 1181.72V1234.84L138.567 1261.41L187.622 1234.84V1181.72ZM81.9222 1247.59L130.978 1274.16V1327.28L81.9222 1353.84L32.8667 1327.28V1274.16L81.9222 1247.59ZM74.3333 1366.59L25.2778 1340.03L-23.7777 1366.59V1419.71L25.2778 1446.27L74.3333 1419.71V1366.59ZM-31.3667 1432.46L17.6888 1459.02V1512.14L-31.3667 1538.7L-80.4222 1512.14V1459.02L-31.3667 1432.46ZM-38.9556 1551.45L-88.0111 1524.89L-137.067 1551.45V1604.57L-88.0111 1631.14L-38.9556 1604.57V1551.45ZM-144.656 1617.32L-95.6 1643.88V1697.01L-144.656 1723.57L-193.711 1697.01V1643.88L-144.656 1617.32ZM-152.244 1736.32L-201.3 1709.76L-250.356 1736.32V1789.44L-201.3 1816L-152.244 1789.44V1736.32ZM535.078 693L584.133 719.561V772.683L535.078 799.244L486.022 772.683V719.561L535.078 693ZM478.433 785.432L527.489 811.993V865.115L478.433 891.676L429.378 865.115V811.993L478.433 785.432ZM470.844 904.426L421.789 877.865L372.733 904.426V957.548L421.789 984.109L470.844 957.548V904.426ZM365.144 970.297L414.2 996.858V1049.98L365.144 1076.54L316.089 1049.98V996.858L365.144 970.297ZM357.556 1089.29L308.5 1062.73L259.444 1089.29V1142.41L308.5 1168.97L357.556 1142.41V1089.29ZM251.856 1155.16L300.911 1181.72V1234.84L251.856 1261.41L202.8 1234.84V1181.72L251.856 1155.16ZM244.267 1274.16L195.211 1247.59L146.156 1274.16V1327.28L195.211 1353.84L244.267 1327.28V1274.16ZM138.567 1340.03L187.622 1366.59V1419.71L138.567 1446.27L89.5111 1419.71V1366.59L138.567 1340.03ZM130.978 1459.02L81.9222 1432.46L32.8667 1459.02V1512.14L81.9222 1538.7L130.978 1512.14V1459.02ZM25.2778 1524.89L74.3333 1551.45V1604.57L25.2778 1631.14L-23.7777 1604.57V1551.45L25.2778 1524.89ZM17.6888 1643.88L-31.3667 1617.32L-80.4222 1643.88V1697.01L-31.3667 1723.57L17.6888 1697.01V1643.88ZM-88.0111 1709.76L-38.9556 1736.32V1789.44L-88.0111 1816L-137.067 1789.44V1736.32L-88.0111 1709.76ZM697.422 719.561L648.367 693L599.311 719.561V772.683L648.367 799.244L697.422 772.683V719.561ZM640.778 811.993L591.722 785.432L542.667 811.993V865.115L591.722 891.676L640.778 865.115V811.993ZM535.078 877.865L584.133 904.426V957.548L535.078 984.109L486.022 957.548V904.426L535.078 877.865ZM527.489 996.858L478.433 970.297L429.378 996.858V1049.98L478.433 1076.54L527.489 1049.98V996.858ZM421.789 1062.73L470.844 1089.29V1142.41L421.789 1168.97L372.733 1142.41V1089.29L421.789 1062.73ZM414.2 1181.72L365.144 1155.16L316.089 1181.72V1234.84L365.144 1261.41L414.2 1234.84V1181.72ZM308.5 1247.59L357.556 1274.16V1327.28L308.5 1353.84L259.444 1327.28V1274.16L308.5 1247.59ZM300.911 1366.59L251.856 1340.03L202.8 1366.59V1419.71L251.856 1446.27L300.911 1419.71V1366.59ZM195.211 1432.46L244.267 1459.02V1512.14L195.211 1538.7L146.156 1512.14V1459.02L195.211 1432.46ZM187.622 1551.45L138.567 1524.89L89.5111 1551.45V1604.57L138.567 1631.14L187.622 1604.57V1551.45ZM81.9222 1617.32L130.978 1643.88V1697.01L81.9222 1723.57L32.8667 1697.01V1643.88L81.9222 1617.32ZM74.3333 1736.32L25.2778 1709.76L-23.7777 1736.32V1789.44L25.2778 1816L74.3333 1789.44V1736.32ZM761.656 693L810.711 719.561V772.683L761.656 799.244L712.6 772.683V719.561L761.656 693ZM705.011 785.432L754.067 811.993V865.115L705.011 891.676L655.956 865.115V811.993L705.011 785.432ZM697.422 904.426L648.367 877.865L599.311 904.426V957.548L648.367 984.109L697.422 957.548V904.426ZM591.722 970.297L640.778 996.858V1049.98L591.722 1076.54L542.667 1049.98V996.858L591.722 970.297ZM584.133 1089.29L535.078 1062.73L486.022 1089.29V1142.41L535.078 1168.97L584.133 1142.41V1089.29ZM478.433 1155.16L527.489 1181.72V1234.84L478.433 1261.41L429.378 1234.84V1181.72L478.433 1155.16ZM470.844 1274.16L421.789 1247.59L372.733 1274.16V1327.28L421.789 1353.84L470.844 1327.28V1274.16ZM365.144 1340.03L414.2 1366.59V1419.71L365.144 1446.27L316.089 1419.71V1366.59L365.144 1340.03ZM357.556 1459.02L308.5 1432.46L259.444 1459.02V1512.14L308.5 1538.7L357.556 1512.14V1459.02ZM251.856 1524.89L300.911 1551.45V1604.57L251.856 1631.14L202.8 1604.57V1551.45L251.856 1524.89ZM244.267 1643.88L195.211 1617.32L146.156 1643.88V1697.01L195.211 1723.57L244.267 1697.01V1643.88ZM138.567 1709.76L187.622 1736.32V1789.44L138.567 1816L89.5111 1789.44V1736.32L138.567 1709.76ZM924 719.561L874.944 693L825.889 719.561V772.683L874.944 799.244L924 772.683V719.561ZM867.355 811.993L818.3 785.432L769.244 811.993V865.115L818.3 891.676L867.355 865.115V811.993ZM761.656 877.865L810.711 904.426V957.548L761.656 984.109L712.6 957.548V904.426L761.656 877.865ZM754.067 996.858L705.011 970.297L655.956 996.858V1049.98L705.011 1076.54L754.067 1049.98V996.858ZM648.367 1062.73L697.422 1089.29V1142.41L648.367 1168.97L599.311 1142.41V1089.29L648.367 1062.73ZM640.778 1181.72L591.722 1155.16L542.667 1181.72V1234.84L591.722 1261.41L640.778 1234.84V1181.72ZM535.078 1247.59L584.133 1274.16V1327.28L535.078 1353.84L486.022 1327.28V1274.16L535.078 1247.59ZM527.489 1366.59L478.433 1340.03L429.378 1366.59V1419.71L478.433 1446.27L527.489 1419.71V1366.59ZM421.789 1432.46L470.844 1459.02V1512.14L421.789 1538.7L372.733 1512.14V1459.02L421.789 1432.46ZM414.2 1551.45L365.144 1524.89L316.089 1551.45V1604.57L365.144 1631.14L414.2 1604.57V1551.45ZM308.5 1617.32L357.556 1643.88V1697.01L308.5 1723.57L259.444 1697.01V1643.88L308.5 1617.32ZM300.911 1736.32L251.856 1709.76L202.8 1736.32V1789.44L251.856 1816L300.911 1789.44V1736.32ZM874.944 877.865L924 904.426V957.548L874.944 984.109L825.889 957.548V904.426L874.944 877.865ZM867.355 996.858L818.3 970.297L769.244 996.858V1049.98L818.3 1076.54L867.355 1049.98V996.858ZM761.656 1062.73L810.711 1089.29V1142.41L761.656 1168.97L712.6 1142.41V1089.29L761.656 1062.73ZM754.067 1181.72L705.011 1155.16L655.956 1181.72V1234.84L705.011 1261.41L754.067 1234.84V1181.72ZM648.367 1247.59L697.422 1274.16V1327.28L648.367 1353.84L599.311 1327.28V1274.16L648.367 1247.59ZM640.778 1366.59L591.722 1340.03L542.667 1366.59V1419.71L591.722 1446.27L640.778 1419.71V1366.59ZM535.078 1432.46L584.133 1459.02V1512.14L535.078 1538.7L486.022 1512.14V1459.02L535.078 1432.46ZM527.489 1551.45L478.433 1524.89L429.378 1551.45V1604.57L478.433 1631.14L527.489 1604.57V1551.45ZM421.789 1617.32L470.844 1643.88V1697.01L421.789 1723.57L372.733 1697.01V1643.88L421.789 1617.32ZM414.2 1736.32L365.144 1709.76L316.089 1736.32V1789.44L365.144 1816L414.2 1789.44V1736.32ZM874.944 1062.73L924 1089.29V1142.41L874.944 1168.97L825.889 1142.41V1089.29L874.944 1062.73ZM867.355 1181.72L818.3 1155.16L769.244 1181.72V1234.84L818.3 1261.41L867.355 1234.84V1181.72ZM761.656 1247.59L810.711 1274.16V1327.28L761.656 1353.84L712.6 1327.28V1274.16L761.656 1247.59ZM754.067 1366.59L705.011 1340.03L655.956 1366.59V1419.71L705.011 1446.27L754.067 1419.71V1366.59ZM648.367 1432.46L697.422 1459.02V1512.14L648.367 1538.7L599.311 1512.14V1459.02L648.367 1432.46ZM640.778 1551.45L591.722 1524.89L542.667 1551.45V1604.57L591.722 1631.14L640.778 1604.57V1551.45ZM535.078 1617.32L584.133 1643.88V1697.01L535.078 1723.57L486.022 1697.01V1643.88L535.078 1617.32ZM527.489 1736.32L478.433 1709.76L429.378 1736.32V1789.44L478.433 1816L527.489 1789.44V1736.32ZM874.944 1247.59L924 1274.16V1327.28L874.944 1353.84L825.889 1327.28V1274.16L874.944 1247.59ZM867.355 1366.59L818.3 1340.03L769.244 1366.59V1419.71L818.3 1446.27L867.355 1419.71V1366.59ZM761.656 1432.46L810.711 1459.02V1512.14L761.656 1538.7L712.6 1512.14V1459.02L761.656 1432.46ZM754.067 1551.45L705.011 1524.89L655.956 1551.45V1604.57L705.011 1631.14L754.067 1604.57V1551.45ZM648.367 1617.32L697.422 1643.88V1697.01L648.367 1723.57L599.311 1697.01V1643.88L648.367 1617.32ZM640.778 1736.32L591.722 1709.76L542.667 1736.32V1789.44L591.722 1816L640.778 1789.44V1736.32ZM874.944 1432.46L924 1459.02V1512.14L874.944 1538.7L825.889 1512.14V1459.02L874.944 1432.46ZM867.355 1551.45L818.3 1524.89L769.244 1551.45V1604.57L818.3 1631.14L867.355 1604.57V1551.45ZM761.656 1617.32L810.711 1643.88V1697.01L761.656 1723.57L712.6 1697.01V1643.88L761.656 1617.32ZM754.067 1736.32L705.011 1709.76L655.956 1736.32V1789.44L705.011 1816L754.067 1789.44V1736.32ZM874.944 1617.32L924 1643.88V1697.01L874.944 1723.57L825.889 1697.01V1643.88L874.944 1617.32ZM867.355 1736.32L818.3 1709.76L769.244 1736.32V1789.44L818.3 1816L867.355 1789.44V1736.32Z" fill="url(#paint1_radial_29_956)"/>
</g>
<defs>
<radialGradient id="paint0_radial_29_956" cx="0" cy="0" r="1" gradientUnits="userSpaceOnUse" gradientTransform="translate(308.5 -229.5) rotate(90) scale(561.5 615.5)">
<stop stop-color="white"/>
<stop offset="1" stop-color="white" stop-opacity="0"/>
</radialGradient>
<radialGradient id="paint1_radial_29_956" cx="0" cy="0" r="1" gradientUnits="userSpaceOnUse" gradientTransform="translate(308.5 1254.5) rotate(90) scale(561.5 615.5)">
<stop stop-color="white"/>
<stop offset="1" stop-color="white" stop-opacity="0"/>
</radialGradient>
<clipPath id="clip0_29_956">
<rect width="618" height="1024" fill="white"/>
</clipPath>
</defs>
</svg>
