<svg width="900" height="1024" viewBox="0 0 900 1024" fill="none" xmlns="http://www.w3.org/2000/svg">
<g clip-path="url(#clip0_29_956)">
<rect width="900" height="1024" fill="white"/>
<rect y="-1" width="900" height="1024" fill="#A435F0"/>
<path fill-rule="evenodd" clip-rule="evenodd" d="M-3.65558 -792L45.4 -765.439V-712.317L-3.65558 -685.756L-52.7111 -712.317V-765.439L-3.65558 -792ZM-11.2445 -673.007L-60.3 -699.568L-109.356 -673.007V-619.885L-60.3 -593.324L-11.2445 -619.885V-673.007ZM-116.944 -607.135L-67.8889 -580.574V-527.452L-116.944 -500.891L-166 -527.452V-580.574L-116.944 -607.135ZM158.689 -765.439L109.633 -792L60.5778 -765.439V-712.317L109.633 -685.756L158.689 -712.317V-765.439ZM102.044 -673.007L52.9889 -699.568L3.93333 -673.007V-619.885L52.9889 -593.324L102.044 -619.885V-673.007ZM-3.65558 -607.135L45.4 -580.574V-527.452L-3.65558 -500.891L-52.7111 -527.452V-580.574L-3.65558 -607.135ZM-11.2445 -488.142L-60.3 -514.703L-109.356 -488.142V-435.02L-60.3 -408.459L-11.2445 -435.02V-488.142ZM-116.944 -422.271L-67.8889 -395.71V-342.587L-116.944 -316.026L-166 -342.587V-395.71L-116.944 -422.271ZM271.978 -765.439L222.922 -792L173.867 -765.439V-712.317L222.922 -685.756L271.978 -712.317V-765.439ZM215.333 -673.007L166.278 -699.568L117.222 -673.007V-619.885L166.278 -593.324L215.333 -619.885V-673.007ZM109.633 -607.135L158.689 -580.574V-527.452L109.633 -500.891L60.5778 -527.452V-580.574L109.633 -607.135ZM102.044 -488.142L52.9889 -514.703L3.93333 -488.142V-435.02L52.9889 -408.459L102.044 -435.02V-488.142ZM-3.65558 -422.271L45.4 -395.71V-342.587L-3.65558 -316.026L-52.7111 -342.587V-395.71L-3.65558 -422.271ZM-11.2445 -303.277L-60.3 -329.838L-109.356 -303.277V-250.155L-60.3 -223.594L-11.2445 -250.155V-303.277ZM-116.944 -237.406L-67.8889 -210.845V-157.723L-116.944 -131.162L-166 -157.723V-210.845L-116.944 -237.406ZM385.267 -765.439L336.211 -792L287.156 -765.439V-712.317L336.211 -685.756L385.267 -712.317V-765.439ZM328.622 -673.007L279.567 -699.568L230.511 -673.007V-619.885L279.567 -593.324L328.622 -619.885V-673.007ZM222.922 -607.135L271.978 -580.574V-527.452L222.922 -500.891L173.867 -527.452V-580.574L222.922 -607.135ZM215.333 -488.142L166.278 -514.703L117.222 -488.142V-435.02L166.278 -408.459L215.333 -435.02V-488.142ZM109.633 -422.271L158.689 -395.71V-342.587L109.633 -316.026L60.5778 -342.587V-395.71L109.633 -422.271ZM102.044 -303.277L52.9889 -329.838L3.93333 -303.277V-250.155L52.9889 -223.594L102.044 -250.155V-303.277ZM-3.65558 -237.406L45.4 -210.845V-157.723L-3.65558 -131.162L-52.7111 -157.723V-210.845L-3.65558 -237.406ZM-11.2445 -118.412L-60.3 -144.974L-109.356 -118.412V-65.2905L-60.3 -38.7294L-11.2445 -65.2905V-118.412ZM-116.944 -52.5411L-67.8889 -25.9801V27.1419L-116.944 53.7029L-166 27.1419V-25.9801L-116.944 -52.5411ZM498.556 -765.439L449.5 -792L400.444 -765.439V-712.317L449.5 -685.756L498.556 -712.317V-765.439ZM441.911 -673.007L392.856 -699.568L343.8 -673.007V-619.885L392.856 -593.324L441.911 -619.885V-673.007ZM336.211 -607.135L385.267 -580.574V-527.452L336.211 -500.891L287.156 -527.452V-580.574L336.211 -607.135ZM328.622 -488.142L279.567 -514.703L230.511 -488.142V-435.02L279.567 -408.459L328.622 -435.02V-488.142ZM222.922 -422.271L271.978 -395.71V-342.587L222.922 -316.026L173.867 -342.587V-395.71L222.922 -422.271ZM215.333 -303.277L166.278 -329.838L117.222 -303.277V-250.155L166.278 -223.594L215.333 -250.155V-303.277ZM109.633 -237.406L158.689 -210.845V-157.723L109.633 -131.162L60.5778 -157.723V-210.845L109.633 -237.406ZM102.044 -118.412L52.9889 -144.974L3.93333 -118.412V-65.2905L52.9889 -38.7294L102.044 -65.2905V-118.412ZM-3.65558 -52.5411L45.4 -25.9801V27.1419L-3.65558 53.7029L-52.7111 27.1419V-25.9801L-3.65558 -52.5411ZM-11.2445 66.4522L-60.3 39.8912L-109.356 66.4522V119.574L-60.3 146.135L-11.2445 119.574V66.4522ZM-116.944 132.324L-67.8889 158.885V212.007L-116.944 238.568L-166 212.007V158.885L-116.944 132.324ZM611.844 -765.439L562.789 -792L513.733 -765.439V-712.317L562.789 -685.756L611.844 -712.317V-765.439ZM555.2 -673.007L506.144 -699.568L457.089 -673.007V-619.885L506.144 -593.324L555.2 -619.885V-673.007ZM449.5 -607.135L498.556 -580.574V-527.452L449.5 -500.891L400.444 -527.452V-580.574L449.5 -607.135ZM441.911 -488.142L392.856 -514.703L343.8 -488.142V-435.02L392.856 -408.459L441.911 -435.02V-488.142ZM336.211 -422.271L385.267 -395.71V-342.587L336.211 -316.026L287.156 -342.587V-395.71L336.211 -422.271ZM328.622 -303.277L279.567 -329.838L230.511 -303.277V-250.155L279.567 -223.594L328.622 -250.155V-303.277ZM222.922 -237.406L271.978 -210.845V-157.723L222.922 -131.162L173.867 -157.723V-210.845L222.922 -237.406ZM215.333 -118.412L166.278 -144.974L117.222 -118.412V-65.2905L166.278 -38.7294L215.333 -65.2905V-118.412ZM109.633 -52.5411L158.689 -25.9801V27.1419L109.633 53.7029L60.5778 27.1419V-25.9801L109.633 -52.5411ZM102.044 66.4522L52.9889 39.8912L3.93333 66.4522V119.574L52.9889 146.135L102.044 119.574V66.4522ZM-3.65558 132.324L45.4 158.885V212.007L-3.65558 238.568L-52.7111 212.007V158.885L-3.65558 132.324ZM-11.2445 251.317L-60.3 224.756L-109.356 251.317V304.439L-60.3 331L-11.2445 304.439V251.317ZM676.078 -792L725.133 -765.439V-712.317L676.078 -685.756L627.022 -712.317V-765.439L676.078 -792ZM619.433 -699.568L668.489 -673.007V-619.885L619.433 -593.324L570.378 -619.885V-673.007L619.433 -699.568ZM611.844 -580.574L562.789 -607.135L513.733 -580.574V-527.452L562.789 -500.891L611.844 -527.452V-580.574ZM506.144 -514.703L555.2 -488.142V-435.02L506.144 -408.459L457.089 -435.02V-488.142L506.144 -514.703ZM498.556 -395.71L449.5 -422.271L400.444 -395.71V-342.587L449.5 -316.026L498.556 -342.587V-395.71ZM392.856 -329.838L441.911 -303.277V-250.155L392.856 -223.594L343.8 -250.155V-303.277L392.856 -329.838ZM385.267 -210.845L336.211 -237.406L287.156 -210.845V-157.723L336.211 -131.162L385.267 -157.723V-210.845ZM279.567 -144.974L328.622 -118.412V-65.2905L279.567 -38.7294L230.511 -65.2905V-118.412L279.567 -144.974ZM271.978 -25.9801L222.922 -52.5411L173.867 -25.9801V27.1419L222.922 53.7029L271.978 27.1419V-25.9801ZM166.278 39.8912L215.333 66.4522V119.574L166.278 146.135L117.222 119.574V66.4522L166.278 39.8912ZM158.689 158.885L109.633 132.324L60.5778 158.885V212.007L109.633 238.568L158.689 212.007V158.885ZM52.9889 224.756L102.044 251.317V304.439L52.9889 331L3.93333 304.439V251.317L52.9889 224.756ZM838.422 -765.439L789.367 -792L740.311 -765.439V-712.317L789.367 -685.756L838.422 -712.317V-765.439ZM781.778 -673.007L732.722 -699.568L683.667 -673.007V-619.885L732.722 -593.324L781.778 -619.885V-673.007ZM676.078 -607.135L725.133 -580.574V-527.452L676.078 -500.891L627.022 -527.452V-580.574L676.078 -607.135ZM668.489 -488.142L619.433 -514.703L570.378 -488.142V-435.02L619.433 -408.459L668.489 -435.02V-488.142ZM562.789 -422.271L611.844 -395.71V-342.587L562.789 -316.026L513.733 -342.587V-395.71L562.789 -422.271ZM555.2 -303.277L506.144 -329.838L457.089 -303.277V-250.155L506.144 -223.594L555.2 -250.155V-303.277ZM449.5 -237.406L498.556 -210.845V-157.723L449.5 -131.162L400.444 -157.723V-210.845L449.5 -237.406ZM441.911 -118.412L392.856 -144.974L343.8 -118.412V-65.2905L392.856 -38.7294L441.911 -65.2905V-118.412ZM336.211 -52.5411L385.267 -25.9801V27.1419L336.211 53.7029L287.156 27.1419V-25.9801L336.211 -52.5411ZM328.622 66.4522L279.567 39.8912L230.511 66.4522V119.574L279.567 146.135L328.622 119.574V66.4522ZM222.922 132.324L271.978 158.885V212.007L222.922 238.568L173.867 212.007V158.885L222.922 132.324ZM215.333 251.317L166.278 224.756L117.222 251.317V304.439L166.278 331L215.333 304.439V251.317ZM902.656 -792L951.711 -765.439V-712.317L902.656 -685.756L853.6 -712.317V-765.439L902.656 -792ZM846.011 -699.568L895.067 -673.007V-619.885L846.011 -593.324L796.956 -619.885V-673.007L846.011 -699.568ZM838.422 -580.574L789.367 -607.135L740.311 -580.574V-527.452L789.367 -500.891L838.422 -527.452V-580.574ZM732.722 -514.703L781.778 -488.142V-435.02L732.722 -408.459L683.667 -435.02V-488.142L732.722 -514.703ZM725.133 -395.71L676.078 -422.271L627.022 -395.71V-342.587L676.078 -316.026L725.133 -342.587V-395.71ZM619.433 -329.838L668.489 -303.277V-250.155L619.433 -223.594L570.378 -250.155V-303.277L619.433 -329.838ZM611.844 -210.845L562.789 -237.406L513.733 -210.845V-157.723L562.789 -131.162L611.844 -157.723V-210.845ZM506.144 -144.974L555.2 -118.412V-65.2905L506.144 -38.7294L457.089 -65.2905V-118.412L506.144 -144.974ZM498.556 -25.9801L449.5 -52.5411L400.444 -25.9801V27.1419L449.5 53.7029L498.556 27.1419V-25.9801ZM392.856 39.8912L441.911 66.4522V119.574L392.856 146.135L343.8 119.574V66.4522L392.856 39.8912ZM385.267 158.885L336.211 132.324L287.156 158.885V212.007L336.211 238.568L385.267 212.007V158.885ZM279.567 224.756L328.622 251.317V304.439L279.567 331L230.511 304.439V251.317L279.567 224.756ZM1065 -765.439L1015.94 -792L966.889 -765.439V-712.317L1015.94 -685.756L1065 -712.317V-765.439ZM1008.36 -673.007L959.3 -699.568L910.244 -673.007V-619.885L959.3 -593.324L1008.36 -619.885V-673.007ZM902.656 -607.135L951.711 -580.574V-527.452L902.656 -500.891L853.6 -527.452V-580.574L902.656 -607.135ZM895.067 -488.142L846.011 -514.703L796.956 -488.142V-435.02L846.011 -408.459L895.067 -435.02V-488.142ZM789.367 -422.271L838.422 -395.71V-342.587L789.367 -316.026L740.311 -342.587V-395.71L789.367 -422.271ZM781.778 -303.277L732.722 -329.838L683.667 -303.277V-250.155L732.722 -223.594L781.778 -250.155V-303.277ZM676.078 -237.406L725.133 -210.845V-157.723L676.078 -131.162L627.022 -157.723V-210.845L676.078 -237.406ZM668.489 -118.412L619.433 -144.974L570.378 -118.412V-65.2905L619.433 -38.7294L668.489 -65.2905V-118.412ZM562.789 -52.5411L611.844 -25.9801V27.1419L562.789 53.7029L513.733 27.1419V-25.9801L562.789 -52.5411ZM555.2 66.4522L506.144 39.8912L457.089 66.4522V119.574L506.144 146.135L555.2 119.574V66.4522ZM449.5 132.324L498.556 158.885V212.007L449.5 238.568L400.444 212.007V158.885L449.5 132.324ZM441.911 251.317L392.856 224.756L343.8 251.317V304.439L392.856 331L441.911 304.439V251.317ZM1015.94 -607.135L1065 -580.574V-527.452L1015.94 -500.891L966.889 -527.452V-580.574L1015.94 -607.135ZM1008.36 -488.142L959.3 -514.703L910.244 -488.142V-435.02L959.3 -408.459L1008.36 -435.02V-488.142ZM902.656 -422.271L951.711 -395.71V-342.587L902.656 -316.026L853.6 -342.587V-395.71L902.656 -422.271ZM895.067 -303.277L846.011 -329.838L796.956 -303.277V-250.155L846.011 -223.594L895.067 -250.155V-303.277ZM789.367 -237.406L838.422 -210.845V-157.723L789.367 -131.162L740.311 -157.723V-210.845L789.367 -237.406ZM781.778 -118.412L732.722 -144.974L683.667 -118.412V-65.2905L732.722 -38.7294L781.778 -65.2905V-118.412ZM676.078 -52.5411L725.133 -25.9801V27.1419L676.078 53.7029L627.022 27.1419V-25.9801L676.078 -52.5411ZM668.489 66.4522L619.433 39.8912L570.378 66.4522V119.574L619.433 146.135L668.489 119.574V66.4522ZM562.789 132.324L611.844 158.885V212.007L562.789 238.568L513.733 212.007V158.885L562.789 132.324ZM555.2 251.317L506.144 224.756L457.089 251.317V304.439L506.144 331L555.2 304.439V251.317ZM1015.94 -422.271L1065 -395.71V-342.587L1015.94 -316.026L966.889 -342.587V-395.71L1015.94 -422.271ZM1008.36 -303.277L959.3 -329.838L910.244 -303.277V-250.155L959.3 -223.594L1008.36 -250.155V-303.277ZM902.656 -237.406L951.711 -210.845V-157.723L902.656 -131.162L853.6 -157.723V-210.845L902.656 -237.406ZM895.067 -118.412L846.011 -144.974L796.956 -118.412V-65.2905L846.011 -38.7294L895.067 -65.2905V-118.412ZM789.367 -52.5411L838.422 -25.9801V27.1419L789.367 53.7029L740.311 27.1419V-25.9801L789.367 -52.5411ZM781.778 66.4522L732.722 39.8912L683.667 66.4522V119.574L732.722 146.135L781.778 119.574V66.4522ZM676.078 132.324L725.133 158.885V212.007L676.078 238.568L627.022 212.007V158.885L676.078 132.324ZM668.489 251.317L619.433 224.756L570.378 251.317V304.439L619.433 331L668.489 304.439V251.317ZM1015.94 -237.406L1065 -210.845V-157.723L1015.94 -131.162L966.889 -157.723V-210.845L1015.94 -237.406ZM1008.36 -118.412L959.3 -144.974L910.244 -118.412V-65.2905L959.3 -38.7294L1008.36 -65.2905V-118.412ZM902.656 -52.5411L951.711 -25.9801V27.1419L902.656 53.7029L853.6 27.1419V-25.9801L902.656 -52.5411ZM895.067 66.4522L846.011 39.8912L796.956 66.4522V119.574L846.011 146.135L895.067 119.574V66.4522ZM789.367 132.324L838.422 158.885V212.007L789.367 238.568L740.311 212.007V158.885L789.367 132.324ZM781.778 251.317L732.722 224.756L683.667 251.317V304.439L732.722 331L781.778 304.439V251.317ZM1015.94 -52.5411L1065 -25.9801V27.1419L1015.94 53.7029L966.889 27.1419V-25.9801L1015.94 -52.5411ZM1008.36 66.4522L959.3 39.8912L910.244 66.4522V119.574L959.3 146.135L1008.36 119.574V66.4522ZM902.656 132.324L951.711 158.885V212.007L902.656 238.568L853.6 212.007V158.885L902.656 132.324ZM895.067 251.317L846.011 224.756L796.956 251.317V304.439L846.011 331L895.067 304.439V251.317ZM1015.94 132.324L1065 158.885V212.007L1015.94 238.568L966.889 212.007V158.885L1015.94 132.324ZM1008.36 251.317L959.3 224.756L910.244 251.317V304.439L959.3 331L1008.36 304.439V251.317Z" fill="url(#paint0_radial_29_956)"/>
<path fill-rule="evenodd" clip-rule="evenodd" d="M-3.65558 692L45.4 718.561V771.683L-3.65558 798.244L-52.7111 771.683V718.561L-3.65558 692ZM-11.2445 810.993L-60.3 784.432L-109.356 810.993V864.115L-60.3 890.676L-11.2445 864.115V810.993ZM-116.944 876.865L-67.8889 903.426V956.548L-116.944 983.109L-166 956.548V903.426L-116.944 876.865ZM158.689 718.561L109.633 692L60.5778 718.561V771.683L109.633 798.244L158.689 771.683V718.561ZM102.044 810.993L52.9889 784.432L3.93333 810.993V864.115L52.9889 890.676L102.044 864.115V810.993ZM-3.65558 876.865L45.4 903.426V956.548L-3.65558 983.109L-52.7111 956.548V903.426L-3.65558 876.865ZM-11.2445 995.858L-60.3 969.297L-109.356 995.858V1048.98L-60.3 1075.54L-11.2445 1048.98V995.858ZM-116.944 1061.73L-67.8889 1088.29V1141.41L-116.944 1167.97L-166 1141.41V1088.29L-116.944 1061.73ZM271.978 718.561L222.922 692L173.867 718.561V771.683L222.922 798.244L271.978 771.683V718.561ZM215.333 810.993L166.278 784.432L117.222 810.993V864.115L166.278 890.676L215.333 864.115V810.993ZM109.633 876.865L158.689 903.426V956.548L109.633 983.109L60.5778 956.548V903.426L109.633 876.865ZM102.044 995.858L52.9889 969.297L3.93333 995.858V1048.98L52.9889 1075.54L102.044 1048.98V995.858ZM-3.65558 1061.73L45.4 1088.29V1141.41L-3.65558 1167.97L-52.7111 1141.41V1088.29L-3.65558 1061.73ZM-11.2445 1180.72L-60.3 1154.16L-109.356 1180.72V1233.84L-60.3 1260.41L-11.2445 1233.84V1180.72ZM-116.944 1246.59L-67.8889 1273.16V1326.28L-116.944 1352.84L-166 1326.28V1273.16L-116.944 1246.59ZM385.267 718.561L336.211 692L287.156 718.561V771.683L336.211 798.244L385.267 771.683V718.561ZM328.622 810.993L279.567 784.432L230.511 810.993V864.115L279.567 890.676L328.622 864.115V810.993ZM222.922 876.865L271.978 903.426V956.548L222.922 983.109L173.867 956.548V903.426L222.922 876.865ZM215.333 995.858L166.278 969.297L117.222 995.858V1048.98L166.278 1075.54L215.333 1048.98V995.858ZM109.633 1061.73L158.689 1088.29V1141.41L109.633 1167.97L60.5778 1141.41V1088.29L109.633 1061.73ZM102.044 1180.72L52.9889 1154.16L3.93333 1180.72V1233.84L52.9889 1260.41L102.044 1233.84V1180.72ZM-3.65558 1246.59L45.4 1273.16V1326.28L-3.65558 1352.84L-52.7111 1326.28V1273.16L-3.65558 1246.59ZM-11.2445 1365.59L-60.3 1339.03L-109.356 1365.59V1418.71L-60.3 1445.27L-11.2445 1418.71V1365.59ZM-116.944 1431.46L-67.8889 1458.02V1511.14L-116.944 1537.7L-166 1511.14V1458.02L-116.944 1431.46ZM498.556 718.561L449.5 692L400.444 718.561V771.683L449.5 798.244L498.556 771.683V718.561ZM441.911 810.993L392.856 784.432L343.8 810.993V864.115L392.856 890.676L441.911 864.115V810.993ZM336.211 876.865L385.267 903.426V956.548L336.211 983.109L287.156 956.548V903.426L336.211 876.865ZM328.622 995.858L279.567 969.297L230.511 995.858V1048.98L279.567 1075.54L328.622 1048.98V995.858ZM222.922 1061.73L271.978 1088.29V1141.41L222.922 1167.97L173.867 1141.41V1088.29L222.922 1061.73ZM215.333 1180.72L166.278 1154.16L117.222 1180.72V1233.84L166.278 1260.41L215.333 1233.84V1180.72ZM109.633 1246.59L158.689 1273.16V1326.28L109.633 1352.84L60.5778 1326.28V1273.16L109.633 1246.59ZM102.044 1365.59L52.9889 1339.03L3.93333 1365.59V1418.71L52.9889 1445.27L102.044 1418.71V1365.59ZM-3.65558 1431.46L45.4 1458.02V1511.14L-3.65558 1537.7L-52.7111 1511.14V1458.02L-3.65558 1431.46ZM-11.2445 1550.45L-60.3 1523.89L-109.356 1550.45V1603.57L-60.3 1630.14L-11.2445 1603.57V1550.45ZM-116.944 1616.32L-67.8889 1642.88V1696.01L-116.944 1722.57L-166 1696.01V1642.88L-116.944 1616.32ZM611.844 718.561L562.789 692L513.733 718.561V771.683L562.789 798.244L611.844 771.683V718.561ZM555.2 810.993L506.144 784.432L457.089 810.993V864.115L506.144 890.676L555.2 864.115V810.993ZM449.5 876.865L498.556 903.426V956.548L449.5 983.109L400.444 956.548V903.426L449.5 876.865ZM441.911 995.858L392.856 969.297L343.8 995.858V1048.98L392.856 1075.54L441.911 1048.98V995.858ZM336.211 1061.73L385.267 1088.29V1141.41L336.211 1167.97L287.156 1141.41V1088.29L336.211 1061.73ZM328.622 1180.72L279.567 1154.16L230.511 1180.72V1233.84L279.567 1260.41L328.622 1233.84V1180.72ZM222.922 1246.59L271.978 1273.16V1326.28L222.922 1352.84L173.867 1326.28V1273.16L222.922 1246.59ZM215.333 1365.59L166.278 1339.03L117.222 1365.59V1418.71L166.278 1445.27L215.333 1418.71V1365.59ZM109.633 1431.46L158.689 1458.02V1511.14L109.633 1537.7L60.5778 1511.14V1458.02L109.633 1431.46ZM102.044 1550.45L52.9889 1523.89L3.93333 1550.45V1603.57L52.9889 1630.14L102.044 1603.57V1550.45ZM-3.65558 1616.32L45.4 1642.88V1696.01L-3.65558 1722.57L-52.7111 1696.01V1642.88L-3.65558 1616.32ZM-11.2445 1735.32L-60.3 1708.76L-109.356 1735.32V1788.44L-60.3 1815L-11.2445 1788.44V1735.32ZM676.078 692L725.133 718.561V771.683L676.078 798.244L627.022 771.683V718.561L676.078 692ZM619.433 784.432L668.489 810.993V864.115L619.433 890.676L570.378 864.115V810.993L619.433 784.432ZM611.844 903.426L562.789 876.865L513.733 903.426V956.548L562.789 983.109L611.844 956.548V903.426ZM506.144 969.297L555.2 995.858V1048.98L506.144 1075.54L457.089 1048.98V995.858L506.144 969.297ZM498.556 1088.29L449.5 1061.73L400.444 1088.29V1141.41L449.5 1167.97L498.556 1141.41V1088.29ZM392.856 1154.16L441.911 1180.72V1233.84L392.856 1260.41L343.8 1233.84V1180.72L392.856 1154.16ZM385.267 1273.16L336.211 1246.59L287.156 1273.16V1326.28L336.211 1352.84L385.267 1326.28V1273.16ZM279.567 1339.03L328.622 1365.59V1418.71L279.567 1445.27L230.511 1418.71V1365.59L279.567 1339.03ZM271.978 1458.02L222.922 1431.46L173.867 1458.02V1511.14L222.922 1537.7L271.978 1511.14V1458.02ZM166.278 1523.89L215.333 1550.45V1603.57L166.278 1630.14L117.222 1603.57V1550.45L166.278 1523.89ZM158.689 1642.88L109.633 1616.32L60.5778 1642.88V1696.01L109.633 1722.57L158.689 1696.01V1642.88ZM52.9889 1708.76L102.044 1735.32V1788.44L52.9889 1815L3.93333 1788.44V1735.32L52.9889 1708.76ZM838.422 718.561L789.367 692L740.311 718.561V771.683L789.367 798.244L838.422 771.683V718.561ZM781.778 810.993L732.722 784.432L683.667 810.993V864.115L732.722 890.676L781.778 864.115V810.993ZM676.078 876.865L725.133 903.426V956.548L676.078 983.109L627.022 956.548V903.426L676.078 876.865ZM668.489 995.858L619.433 969.297L570.378 995.858V1048.98L619.433 1075.54L668.489 1048.98V995.858ZM562.789 1061.73L611.844 1088.29V1141.41L562.789 1167.97L513.733 1141.41V1088.29L562.789 1061.73ZM555.2 1180.72L506.144 1154.16L457.089 1180.72V1233.84L506.144 1260.41L555.2 1233.84V1180.72ZM449.5 1246.59L498.556 1273.16V1326.28L449.5 1352.84L400.444 1326.28V1273.16L449.5 1246.59ZM441.911 1365.59L392.856 1339.03L343.8 1365.59V1418.71L392.856 1445.27L441.911 1418.71V1365.59ZM336.211 1431.46L385.267 1458.02V1511.14L336.211 1537.7L287.156 1511.14V1458.02L336.211 1431.46ZM328.622 1550.45L279.567 1523.89L230.511 1550.45V1603.57L279.567 1630.14L328.622 1603.57V1550.45ZM222.922 1616.32L271.978 1642.88V1696.01L222.922 1722.57L173.867 1696.01V1642.88L222.922 1616.32ZM215.333 1735.32L166.278 1708.76L117.222 1735.32V1788.44L166.278 1815L215.333 1788.44V1735.32ZM902.656 692L951.711 718.561V771.683L902.656 798.244L853.6 771.683V718.561L902.656 692ZM846.011 784.432L895.067 810.993V864.115L846.011 890.676L796.956 864.115V810.993L846.011 784.432ZM838.422 903.426L789.367 876.865L740.311 903.426V956.548L789.367 983.109L838.422 956.548V903.426ZM732.722 969.297L781.778 995.858V1048.98L732.722 1075.54L683.667 1048.98V995.858L732.722 969.297ZM725.133 1088.29L676.078 1061.73L627.022 1088.29V1141.41L676.078 1167.97L725.133 1141.41V1088.29ZM619.433 1154.16L668.489 1180.72V1233.84L619.433 1260.41L570.378 1233.84V1180.72L619.433 1154.16ZM611.844 1273.16L562.789 1246.59L513.733 1273.16V1326.28L562.789 1352.84L611.844 1326.28V1273.16ZM506.144 1339.03L555.2 1365.59V1418.71L506.144 1445.27L457.089 1418.71V1365.59L506.144 1339.03ZM498.556 1458.02L449.5 1431.46L400.444 1458.02V1511.14L449.5 1537.7L498.556 1511.14V1458.02ZM392.856 1523.89L441.911 1550.45V1603.57L392.856 1630.14L343.8 1603.57V1550.45L392.856 1523.89ZM385.267 1642.88L336.211 1616.32L287.156 1642.88V1696.01L336.211 1722.57L385.267 1696.01V1642.88ZM279.567 1708.76L328.622 1735.32V1788.44L279.567 1815L230.511 1788.44V1735.32L279.567 1708.76ZM1065 718.561L1015.94 692L966.889 718.561V771.683L1015.94 798.244L1065 771.683V718.561ZM1008.36 810.993L959.3 784.432L910.244 810.993V864.115L959.3 890.676L1008.36 864.115V810.993ZM902.656 876.865L951.711 903.426V956.548L902.656 983.109L853.6 956.548V903.426L902.656 876.865ZM895.067 995.858L846.011 969.297L796.956 995.858V1048.98L846.011 1075.54L895.067 1048.98V995.858ZM789.367 1061.73L838.422 1088.29V1141.41L789.367 1167.97L740.311 1141.41V1088.29L789.367 1061.73ZM781.778 1180.72L732.722 1154.16L683.667 1180.72V1233.84L732.722 1260.41L781.778 1233.84V1180.72ZM676.078 1246.59L725.133 1273.16V1326.28L676.078 1352.84L627.022 1326.28V1273.16L676.078 1246.59ZM668.489 1365.59L619.433 1339.03L570.378 1365.59V1418.71L619.433 1445.27L668.489 1418.71V1365.59ZM562.789 1431.46L611.844 1458.02V1511.14L562.789 1537.7L513.733 1511.14V1458.02L562.789 1431.46ZM555.2 1550.45L506.144 1523.89L457.089 1550.45V1603.57L506.144 1630.14L555.2 1603.57V1550.45ZM449.5 1616.32L498.556 1642.88V1696.01L449.5 1722.57L400.444 1696.01V1642.88L449.5 1616.32ZM441.911 1735.32L392.856 1708.76L343.8 1735.32V1788.44L392.856 1815L441.911 1788.44V1735.32ZM1015.94 876.865L1065 903.426V956.548L1015.94 983.109L966.889 956.548V903.426L1015.94 876.865ZM1008.36 995.858L959.3 969.297L910.244 995.858V1048.98L959.3 1075.54L1008.36 1048.98V995.858ZM902.656 1061.73L951.711 1088.29V1141.41L902.656 1167.97L853.6 1141.41V1088.29L902.656 1061.73ZM895.067 1180.72L846.011 1154.16L796.956 1180.72V1233.84L846.011 1260.41L895.067 1233.84V1180.72ZM789.367 1246.59L838.422 1273.16V1326.28L789.367 1352.84L740.311 1326.28V1273.16L789.367 1246.59ZM781.778 1365.59L732.722 1339.03L683.667 1365.59V1418.71L732.722 1445.27L781.778 1418.71V1365.59ZM676.078 1431.46L725.133 1458.02V1511.14L676.078 1537.7L627.022 1511.14V1458.02L676.078 1431.46ZM668.489 1550.45L619.433 1523.89L570.378 1550.45V1603.57L619.433 1630.14L668.489 1603.57V1550.45ZM562.789 1616.32L611.844 1642.88V1696.01L562.789 1722.57L513.733 1696.01V1642.88L562.789 1616.32ZM555.2 1735.32L506.144 1708.76L457.089 1735.32V1788.44L506.144 1815L555.2 1788.44V1735.32ZM1015.94 1061.73L1065 1088.29V1141.41L1015.94 1167.97L966.889 1141.41V1088.29L1015.94 1061.73ZM1008.36 1180.72L959.3 1154.16L910.244 1180.72V1233.84L959.3 1260.41L1008.36 1233.84V1180.72ZM902.656 1246.59L951.711 1273.16V1326.28L902.656 1352.84L853.6 1326.28V1273.16L902.656 1246.59ZM895.067 1365.59L846.011 1339.03L796.956 1365.59V1418.71L846.011 1445.27L895.067 1418.71V1365.59ZM789.367 1431.46L838.422 1458.02V1511.14L789.367 1537.7L740.311 1511.14V1458.02L789.367 1431.46ZM781.778 1550.45L732.722 1523.89L683.667 1550.45V1603.57L732.722 1630.14L781.778 1603.57V1550.45ZM676.078 1616.32L725.133 1642.88V1696.01L676.078 1722.57L627.022 1696.01V1642.88L676.078 1616.32ZM668.489 1735.32L619.433 1708.76L570.378 1735.32V1788.44L619.433 1815L668.489 1788.44V1735.32ZM1015.94 1246.59L1065 1273.16V1326.28L1015.94 1352.84L966.889 1326.28V1273.16L1015.94 1246.59ZM1008.36 1365.59L959.3 1339.03L910.244 1365.59V1418.71L959.3 1445.27L1008.36 1418.71V1365.59ZM902.656 1431.46L951.711 1458.02V1511.14L902.656 1537.7L853.6 1511.14V1458.02L902.656 1431.46ZM895.067 1550.45L846.011 1523.89L796.956 1550.45V1603.57L846.011 1630.14L895.067 1603.57V1550.45ZM789.367 1616.32L838.422 1642.88V1696.01L789.367 1722.57L740.311 1696.01V1642.88L789.367 1616.32ZM781.778 1735.32L732.722 1708.76L683.667 1735.32V1788.44L732.722 1815L781.778 1788.44V1735.32ZM1015.94 1431.46L1065 1458.02V1511.14L1015.94 1537.7L966.889 1511.14V1458.02L1015.94 1431.46ZM1008.36 1550.45L959.3 1523.89L910.244 1550.45V1603.57L959.3 1630.14L1008.36 1603.57V1550.45ZM902.656 1616.32L951.711 1642.88V1696.01L902.656 1722.57L853.6 1696.01V1642.88L902.656 1616.32ZM895.067 1735.32L846.011 1708.76L796.956 1735.32V1788.44L846.011 1815L895.067 1788.44V1735.32ZM1015.94 1616.32L1065 1642.88V1696.01L1015.94 1722.57L966.889 1696.01V1642.88L1015.94 1616.32ZM1008.36 1735.32L959.3 1708.76L910.244 1735.32V1788.44L959.3 1815L1008.36 1788.44V1735.32Z" fill="url(#paint1_radial_29_956)"/>
</g>
<defs>
<radialGradient id="paint0_radial_29_956" cx="0" cy="0" r="1" gradientUnits="userSpaceOnUse" gradientTransform="translate(449.5 -230.5) rotate(90) scale(561.5 615.5)">
<stop stop-color="white"/>
<stop offset="1" stop-color="white" stop-opacity="0"/>
</radialGradient>
<radialGradient id="paint1_radial_29_956" cx="0" cy="0" r="1" gradientUnits="userSpaceOnUse" gradientTransform="translate(449.5 1253.5) rotate(90) scale(561.5 615.5)">
<stop stop-color="white"/>
<stop offset="1" stop-color="white" stop-opacity="0"/>
</radialGradient>
<clipPath id="clip0_29_956">
<rect width="900" height="1024" fill="white"/>
</clipPath>
</defs>
</svg>
